<?xml version="1.0" encoding="utf-8"?>
<!-- Generator: Adobe Illustrator 17.1.0, SVG Export Plug-In . SVG Version: 6.00 Build 0)  -->
<!DOCTYPE svg PUBLIC "-//W3C//DTD SVG 1.1//EN" "http://www.w3.org/Graphics/SVG/1.1/DTD/svg11.dtd">
<svg version="1.1" id="Layer_1" xmlns="http://www.w3.org/2000/svg" xmlns:xlink="http://www.w3.org/1999/xlink" x="0px" y="0px"
	 viewBox="0 0 512 512" enable-background="new 0 0 512 512" xml:space="preserve">
<path fill="#AAAAAA" d="M420,354.8l-99.6-98.5l99.6-98.5L420,354.8L420,354.8z M109,373.5l99.8-98.4l4.3,4c23.6,22.2,61,22.2,83.6,0
	l4.3-4.2l100.2,98.6C401.1,373.5,109,373.5,109,373.5z M91.1,157.7l99.4,98.5l-99.6,98.5C90.9,354.8,91.1,157.7,91.1,157.7z
	 M400.9,138.9l-122.5,121c-12.4,12.4-34.7,12.1-47.5-0.5L109.1,138.9H400.9z M64,112c0,11.3,0,276.6,0,288c11.6,0,372.4,0,384,0
	c0-11.4,0-276.7,0-288C436.4,112,75.6,112,64,112z"/>
</svg>
