<?xml version="1.0" encoding="utf-8"?>
<!-- Generator: Adobe Illustrator 17.1.0, SVG Export Plug-In . SVG Version: 6.00 Build 0)  -->
<!DOCTYPE svg PUBLIC "-//W3C//DTD SVG 1.1//EN" "http://www.w3.org/Graphics/SVG/1.1/DTD/svg11.dtd">
<svg version="1.1" id="Layer_1" xmlns="http://www.w3.org/2000/svg" xmlns:xlink="http://www.w3.org/1999/xlink" x="0px" y="0px"
	 viewBox="0 0 512 512" enable-background="new 0 0 512 512" xml:space="preserve">
<path fill="#AAAAAA" d="M512,250v-2c-42.2-8.4-85.8-9.1-112-8c4.3-15.5,6-32.1,6-52c0-28.5-10.6-52.7-28-70c3-9.8,7.2-30.1-4-58
	c0,0-19.5-7.8-64,22c-17.4-4.4-35.4-6-54-6c-20.4,0-42.7,2.7-62,8c-45.9-31.3-66-24-66-24c-13.2,33.1-4.5,55.9-2,62
	c-15.6,16.8-26,39.7-26,66c0,19.8,2.5,36.5,8,52c-26.4-1-67.3-0.1-108,8v2c40.9-8.2,83.8-9,110-8c1.2,3.2,2.5,7,4,10
	c-25.9,0.8-71.5,4-114,16l2,2c42.8-12.1,86.3-15.2,112-16c15.5,28.9,45.6,46.1,100,52c-7.7,5.2-14.8,15.1-18,30
	c-10.5,5-44,16.3-64-18c0,0-10.6-20.4-32-22c0,0-21.3,0.8-2,14c0,0,14.4,5.4,24,30c0.3,0,11.7,43.5,72,30v42c-0.3,0,0.1,14.9-14,20
	c0,0-8.9,6.8,0,10c0,0,38,3.9,38-28v-48c0.3,0-1.2-17.5,8-24v76c-0.4,0-0.4,19-10,26c0,0-6.1,11.2,8,8c0,0,26.7-4.7,28-36v-78h8v78
	c1.3,31.3,28,36,28,36c14,3.2,8-8,8-8c-10-7-10-26-10-26v-76c9.5,7.2,8,24,8,24v48c0,31.9,38,28,38,28c8.9-3.2,0-10,0-10
	c-14.4-5.1-14-20-14-20v-62c0.3-24.1-10.1-37.2-20-44c58-5.7,85.2-22.9,98-52c25.4,0.7,70.3,3.7,114,16l2-2
	c-43.5-12.3-90.3-15.3-116-16c1.2-2.9,3.1-6.9,4-10C441.3,242.5,478.1,243.2,512,250z"/>
</svg>
