<?xml version="1.0" encoding="utf-8"?>
<!-- Generator: Adobe Illustrator 17.1.0, SVG Export Plug-In . SVG Version: 6.00 Build 0)  -->
<!DOCTYPE svg PUBLIC "-//W3C//DTD SVG 1.1//EN" "http://www.w3.org/Graphics/SVG/1.1/DTD/svg11.dtd">
<svg version="1.1" id="Layer_1" xmlns="http://www.w3.org/2000/svg" xmlns:xlink="http://www.w3.org/1999/xlink" x="0px" y="0px"
	 viewBox="10.2 9 12.2 12.2" enable-background="new 10.2 9 12.2 12.2" xml:space="preserve">
<g>
	<path fill="#AAAAAA" d="M22.5,15.1c0,1.6-0.6,3.2-1.8,4.3s-2.7,1.8-4.3,1.8c-3.4,0-6.1-2.8-6.1-6.1S13,9,16.4,9
		S22.5,11.8,22.5,15.1z M21.3,15.1c0-2.7-2.2-4.9-4.9-4.9s-4.9,2.2-4.9,4.9s2.2,4.9,4.9,4.9c1.3,0,2.6-0.5,3.5-1.4
		S21.3,16.4,21.3,15.1z M17,14.9l2.6,1.6l-0.7,1.1l-3.2-1.9v-4.1H17V14.9z"/>
</g>
</svg>
