<?xml version="1.0" encoding="utf-8"?>
<!-- Generator: Adobe Illustrator 17.1.0, SVG Export Plug-In . SVG Version: 6.00 Build 0)  -->
<!DOCTYPE svg PUBLIC "-//W3C//DTD SVG 1.1//EN" "http://www.w3.org/Graphics/SVG/1.1/DTD/svg11.dtd">
<svg version="1.1" id="Layer_1" xmlns="http://www.w3.org/2000/svg" xmlns:xlink="http://www.w3.org/1999/xlink" x="0px" y="0px"
	 viewBox="0 0 512 512" enable-background="new 0 0 512 512" xml:space="preserve">
<path fill="#AAAAAA" d="M492.3,109.5c-17.4,7.7-36.1,12.9-55.7,15.3c20-12,35.4-31,42.6-53.6c-18.7,11.1-39.5,19.2-61.6,23.5
	C400,75.8,374.8,64,346.9,64c-53.5,0-96.9,43.4-96.9,96.9c0,7.6,0.9,15,2.5,22.1c-80.6-4-152-42.6-199.8-101.3
	c-8.3,14.3-13.1,31-13.1,48.7c0,33.6,17.1,63.3,43.1,80.7c-15.9-0.5-30.8-4.9-43.9-12.1c0,0.4,0,0.8,0,1.2c0,47,33.4,86.1,77.8,95.1
	c-8.1,2.2-16.7,3.4-25.5,3.4c-6.2,0-12.3-0.6-18.2-1.7c12.3,38.5,48.1,66.5,90.6,67.3c-33.2,26-75,41.5-120.4,41.5
	c-7.8,0-15.5-0.5-23.1-1.4c42.9,27.5,93.9,43.6,148.6,43.6c178.3,0,275.8-147.7,275.8-275.8c0-4.2-0.1-8.4-0.3-12.5
	C462.8,146,479.3,128.9,492.3,109.5"/>
</svg>
